<svg version="1.1" id="Layer_1" xmlns="http://www.w3.org/2000/svg" xmlns:xlink="http://www.w3.org/1999/xlink" x="0px" y="0px"
	 width="100%" viewBox="0 0 228 180" enable-background="new 0 0 228 180" xml:space="preserve">
<path fill="#000000" opacity="0.000000" stroke="none" 
	d="
M229.000000,73.000000 
	C229.000000,109.311371 229.000000,145.122742 229.000000,180.967056 
	C153.068558,180.967056 77.137108,180.967056 1.102826,180.967056 
	C1.102826,121.105484 1.102826,61.210739 1.102826,1.157994 
	C76.999733,1.157994 152.999832,1.157994 229.000000,1.157994 
	C229.000000,24.862631 229.000000,48.681316 229.000000,73.000000 
M114.518639,34.023563 
	C113.657455,34.675793 112.796280,35.328018 111.998749,35.994053 
	C111.998749,35.994053 112.000587,35.928944 111.349739,36.029518 
	C110.722076,36.231640 110.051788,36.691856 109.473289,36.596313 
	C103.064789,35.537861 103.265121,35.682999 101.671356,41.845554 
	C101.183510,43.731884 98.583061,46.074287 96.651695,46.391556 
	C91.449089,47.246216 87.999298,42.596771 83.548599,40.826412 
	C82.804916,40.530602 83.180168,37.668648 82.830978,36.036839 
	C82.637733,35.133766 82.222656,34.077450 81.552513,33.508228 
	C74.943184,27.894281 70.391388,29.235655 67.905174,37.447353 
	C67.857498,37.604832 67.899719,37.810337 67.813400,37.932003 
	C67.168839,38.840530 66.520805,40.449982 65.838669,40.467472 
	C64.751419,40.495350 63.050327,39.734585 62.627750,38.830868 
	C59.551460,32.251907 53.160637,34.179893 47.513264,32.604298 
	C45.375286,33.938145 42.200485,34.782356 41.295586,36.698521 
	C38.680527,42.236015 36.979275,48.205048 34.989597,53.995712 
	C34.989597,53.995712 34.980610,53.925369 34.381447,54.283016 
	C33.315685,56.079414 32.249924,57.875813 30.714834,59.864368 
	C28.083714,64.705833 23.927092,64.538055 19.214323,63.896626 
	C17.562529,63.671806 15.189265,65.117622 13.928711,66.509773 
	C12.094132,68.535881 10.981997,71.212074 9.536444,73.595695 
	C8.204211,75.792458 6.533131,77.841232 5.554339,80.182243 
	C3.793350,84.394058 6.071416,92.036621 9.383529,92.969978 
	C13.912602,94.246262 18.561306,95.136154 23.196594,95.984886 
	C26.673597,96.621529 29.201569,97.083565 27.322975,101.914940 
	C25.674755,106.153824 24.772242,111.043045 30.158022,113.402962 
	C29.879173,115.133202 29.658031,116.505371 29.436888,117.877541 
	C30.784052,118.018265 32.129230,118.183670 33.478989,118.292130 
	C34.617321,118.383614 35.776917,118.557472 36.899376,118.436867 
	C40.895206,118.007523 45.435059,118.484604 48.715092,116.691132 
	C52.160892,114.807037 54.713772,113.878265 58.008743,115.989075 
	C58.008743,115.989075 57.945972,116.002716 57.875202,116.521370 
	C60.625549,117.494087 63.326172,119.070396 66.137573,119.302017 
	C70.672195,119.675591 75.279816,119.163208 79.414246,119.262367 
	C79.001030,119.774834 78.587814,120.287300 78.041534,121.327713 
	C78.010330,121.505081 77.979126,121.682449 77.237694,121.979019 
	C73.027550,122.870338 72.431038,126.062874 72.181953,129.637985 
	C71.950691,132.957352 73.928909,133.926117 76.618210,134.444931 
	C77.038689,134.526062 77.595764,135.009476 77.707542,135.412796 
	C79.226646,140.894028 84.156456,142.477570 88.257141,145.202744 
	C89.949142,146.327179 91.933960,150.091476 91.308006,151.069595 
	C89.059380,154.583344 88.644981,157.215439 91.523972,160.546844 
	C93.838158,163.224686 95.059135,166.940201 97.591972,169.312576 
	C100.734993,172.256485 105.048676,170.387772 107.712166,167.059433 
	C109.520790,164.799347 112.711533,163.253342 115.586586,162.342148 
	C118.861496,161.304260 122.848503,162.946762 124.913307,158.172821 
	C125.564346,156.667572 129.358887,155.806580 131.667572,155.894165 
	C135.542587,156.041138 138.311951,153.585312 138.089676,149.709595 
	C137.985260,147.888702 138.430801,145.308044 139.648117,144.276337 
	C143.277588,141.200195 143.830429,138.021835 141.523972,134.070541 
	C139.029785,129.797668 139.619217,120.711906 143.248245,118.523445 
	C148.024719,115.643036 152.551331,112.880989 155.132004,107.637703 
	C157.230301,103.374512 159.601044,99.233353 162.054489,95.160675 
	C164.197128,91.603889 163.370255,86.022675 169.512741,85.089760 
	C170.007782,85.405838 170.502823,85.721909 171.010300,85.989944 
	C171.010300,85.989944 170.963135,86.005363 171.272308,86.585464 
	C176.260345,89.667816 181.248367,92.750168 186.495560,95.919922 
	C186.495560,95.919922 186.765060,95.966423 187.236557,96.588745 
	C189.101883,97.039459 190.990402,97.931679 192.827011,97.835243 
	C195.445694,97.697754 198.164246,96.043961 200.591110,96.466873 
	C204.289566,97.111359 204.584824,95.174088 204.774536,92.697006 
	C205.217224,86.916458 206.466156,81.011772 205.730927,75.373528 
	C204.792938,68.180603 205.668701,60.110981 199.325928,54.432499 
	C198.937836,54.085037 199.110550,53.178989 198.822678,52.639359 
	C197.873062,50.859264 196.831696,49.128117 195.825577,47.378174 
	C195.489410,47.528419 195.153259,47.678665 194.817108,47.828907 
	C193.934464,45.224731 193.051804,42.620556 192.770645,39.980778 
	C193.169693,39.930305 193.568756,39.879837 194.727783,39.920040 
	C201.209946,40.452961 199.595963,35.485676 200.240509,31.421316 
	C200.445358,29.605055 201.654633,28.297308 199.569885,25.997730 
	C197.861526,24.113323 198.835022,19.797596 198.620087,16.565695 
	C195.395676,15.537481 193.790283,16.480614 193.423492,19.757051 
	C193.296173,20.894459 192.428818,21.949024 191.765259,23.550898 
	C191.498947,24.002455 191.232635,24.454012 190.481842,24.760454 
	C189.640869,24.807283 188.799896,24.854111 187.303024,25.040518 
	C185.925369,26.024899 184.547714,27.009279 182.878265,28.464334 
	C182.589890,30.369843 182.301514,32.275349 181.427460,33.795624 
	C180.885574,32.547459 180.343689,31.299295 179.692245,29.446533 
	C180.105957,28.017443 180.369156,25.425322 180.957947,25.349125 
	C184.617844,24.875496 185.020767,21.534653 184.375443,19.871681 
	C183.703110,18.139057 180.852051,16.591425 178.736649,16.228903 
	C175.276855,15.635992 171.641327,16.068579 168.079941,16.068579 
	C168.849548,14.493614 170.321289,14.201927 170.856339,13.333282 
	C171.988495,11.495221 173.595901,9.176585 173.261719,7.379933 
	C172.680618,4.255695 170.104828,5.383221 168.141052,6.499332 
	C166.703354,7.316453 165.339645,8.263769 163.409103,8.907300 
	C161.948853,10.053885 160.488602,11.200470 158.293930,12.923724 
	C158.237762,12.928813 156.638290,12.697845 155.394196,13.257248 
	C151.740616,14.900081 148.333832,17.127087 144.617096,18.579554 
	C142.690598,19.332411 140.312897,18.925278 138.139740,19.054045 
	C136.388733,19.157799 134.009720,18.639055 133.062225,19.569942 
	C132.080673,20.534292 132.369446,22.909090 132.329956,24.672068 
	C132.305099,25.780937 132.698441,26.899178 133.009659,28.003975 
	C133.009659,28.003975 133.000458,27.898516 132.421692,27.946583 
	C130.926178,28.960978 129.430664,29.975372 128.003967,31.000196 
	C128.003967,31.000196 128.012192,30.931093 127.328598,31.062115 
	C125.876060,31.676729 124.423515,32.291344 122.226692,33.054825 
	C120.505768,33.439941 118.784851,33.825058 116.380249,34.130535 
	C115.922569,34.152618 115.464890,34.174702 114.518639,34.023563 
z"/>
<path fill="#ff9933" opacity="1.000000" stroke="none" 
	d="
M78.174606,120.799774 
	C78.587814,120.287300 79.001030,119.774834 79.888306,119.050720 
	C80.244774,117.970444 80.242477,116.385490 79.991554,116.345093 
	C77.731316,115.981262 75.427422,115.744812 73.136414,115.745377 
	C68.072914,115.746628 63.009449,115.907150 57.945972,116.002716 
	C57.945972,116.002716 58.008743,115.989075 57.831505,115.711655 
	C54.847809,111.903252 51.640114,113.681763 48.162319,114.225433 
	C43.952137,114.883591 38.813992,115.635948 35.393059,113.840614 
	C30.743204,111.400352 28.134329,106.674942 30.702682,100.360893 
	C32.390095,96.212563 28.541899,94.617157 25.197811,93.716309 
	C21.360844,92.682693 17.364210,92.182297 13.600777,90.949921 
	C8.635245,89.323929 6.730951,84.530777 9.031490,79.835358 
	C10.632967,76.566719 12.336627,73.267990 14.548108,70.411148 
	C15.707824,68.913002 18.027628,67.549988 19.876860,67.477005 
	C29.207167,67.108788 31.073496,66.214928 33.103275,59.693855 
	C33.863110,57.573330 34.421860,55.749352 34.980610,53.925369 
	C34.980610,53.925369 34.989597,53.995712 35.259777,53.834404 
	C36.756191,51.602505 38.067940,49.577110 39.191029,47.452007 
	C41.596004,42.901302 42.234589,37.132584 48.312202,35.082207 
	C52.299923,36.689068 56.569408,37.373589 59.471012,39.737278 
	C65.929520,44.998470 67.292099,44.923229 70.684288,37.055321 
	C71.287086,35.657188 72.592903,34.562168 73.574089,33.327183 
	C74.742737,34.566830 76.543488,35.624237 76.963158,37.079830 
	C78.295769,41.701916 81.039459,44.464729 85.633766,45.806366 
	C88.328316,46.593235 90.923927,47.826553 93.431755,49.116291 
	C96.201126,50.540531 98.184082,50.270180 100.425323,47.838753 
	C103.953201,44.011513 105.783112,38.418194 111.504684,36.770325 
	C111.731911,36.704880 111.838036,36.218952 112.000587,35.928944 
	C112.000587,35.928944 111.998749,35.994053 112.351074,35.986832 
	C113.470589,35.939510 114.237770,35.899410 115.398315,35.874008 
	C116.836975,35.894398 117.882263,35.900097 119.240219,35.813530 
	C120.707657,35.144291 121.862442,34.567307 123.345032,33.902401 
	C125.119286,32.853352 126.565742,31.892223 128.012192,30.931095 
	C128.012192,30.931093 128.003967,31.000196 128.316772,30.938366 
	C130.086548,29.883860 131.543503,28.891186 133.000458,27.898514 
	C133.000458,27.898516 133.009659,28.003975 133.192581,27.795753 
	C134.271637,26.238817 135.167770,24.890100 136.063904,23.541386 
	C136.249542,23.907768 136.435196,24.274151 136.620834,24.640535 
	C139.741119,23.441387 142.796906,22.019318 145.996277,21.093412 
	C151.281677,19.563807 156.659729,18.354404 162.298126,17.178974 
	C168.288651,18.603970 173.979782,19.860056 179.670929,21.116144 
	C175.748932,23.955526 174.537033,26.979094 176.141968,31.338360 
	C179.511078,34.436119 182.755768,37.217014 186.261353,40.184883 
	C187.687073,40.908981 188.851929,41.446106 190.131256,42.353745 
	C192.838806,47.901428 195.655792,52.980957 197.966766,58.281120 
	C200.695374,64.539192 205.809647,70.497116 201.045242,78.084778 
	C200.306198,79.261742 200.610031,81.325417 200.911591,82.886314 
	C202.877991,93.064590 201.130417,95.370941 190.754364,95.918182 
	C189.427429,95.988167 188.094971,95.952919 186.765060,95.966415 
	C186.765060,95.966423 186.495560,95.919922 186.238220,95.547226 
	C182.354477,89.858704 177.310532,86.864616 170.963135,86.005363 
	C170.963135,86.005363 171.010300,85.989944 170.952454,85.682968 
	C170.110504,83.658897 170.537460,80.566895 167.001389,81.971359 
	C166.987823,81.984047 166.973114,82.018166 166.807465,82.175980 
	C166.423813,82.547615 166.209473,82.765007 165.690186,83.136032 
	C163.759964,86.261513 161.970810,89.159286 160.548477,92.227135 
	C156.522095,100.911751 153.076416,110.005615 143.931076,114.890373 
	C140.227081,116.868767 138.309875,119.848846 137.847168,123.980469 
	C136.914001,132.312897 141.582626,141.412827 134.470566,148.910934 
	C134.382309,149.003983 134.504883,149.314056 134.416550,149.387405 
	C133.251617,150.354767 131.789505,152.307831 130.933960,152.073242 
	C127.086182,151.018219 125.705116,153.690964 123.539032,155.762115 
	C121.673347,157.546051 118.952240,159.840668 116.806961,159.652817 
	C111.261810,159.167267 107.506844,161.092850 104.542084,165.453049 
	C102.709496,168.148178 100.508446,167.835693 98.111221,166.149475 
	C93.795502,163.113815 92.025635,157.476837 93.777916,152.078644 
	C95.362755,147.196289 93.450180,144.002441 88.556557,142.429108 
	C87.170364,141.983444 85.164062,140.104904 85.255028,139.038116 
	C85.564301,135.411667 83.413406,134.543350 80.784027,133.492554 
	C74.579605,131.013016 74.172371,129.429413 78.180901,123.887268 
	C78.302727,122.751907 78.238663,121.775841 78.174606,120.799774 
z"/>
<path fill="#ff9933" opacity="1.000000" stroke="none" 
	d="
M77.995018,124.046555 
	C74.172371,129.429413 74.579605,131.013016 80.784027,133.492554 
	C83.413406,134.543350 85.564301,135.411667 85.255028,139.038116 
	C85.164062,140.104904 87.170364,141.983444 88.556557,142.429108 
	C93.450180,144.002441 95.362755,147.196289 93.777916,152.078644 
	C92.025635,157.476837 93.795502,163.113815 98.111221,166.149475 
	C100.508446,167.835693 102.709496,168.148178 104.542084,165.453049 
	C107.506844,161.092850 111.261810,159.167267 116.806961,159.652817 
	C118.952240,159.840668 121.673347,157.546051 123.539032,155.762115 
	C125.705116,153.690964 127.086182,151.018219 130.933960,152.073242 
	C131.789505,152.307831 133.251617,150.354767 134.416550,149.387405 
	C134.504883,149.314056 134.382309,149.003983 134.470566,148.910934 
	C141.582626,141.412827 136.914001,132.312897 137.847168,123.980469 
	C138.309875,119.848846 140.227081,116.868767 143.931076,114.890373 
	C153.076416,110.005615 156.522095,100.911751 160.548477,92.227135 
	C161.970810,89.159286 163.759964,86.261513 165.857086,82.979218 
	C166.551849,82.459938 166.765366,82.241875 166.973114,82.018166 
	C166.973114,82.018166 166.987823,81.984047 167.199127,82.184891 
	C167.939011,83.192154 168.467606,83.998566 168.996185,84.804977 
	C163.370255,86.022675 164.197128,91.603889 162.054489,95.160675 
	C159.601044,99.233353 157.230301,103.374512 155.132004,107.637703 
	C152.551331,112.880989 148.024719,115.643036 143.248245,118.523445 
	C139.619217,120.711906 139.029785,129.797668 141.523972,134.070541 
	C143.830429,138.021835 143.277588,141.200195 139.648117,144.276337 
	C138.430801,145.308044 137.985260,147.888702 138.089676,149.709595 
	C138.311951,153.585312 135.542587,156.041138 131.667572,155.894165 
	C129.358887,155.806580 125.564346,156.667572 124.913307,158.172821 
	C122.848503,162.946762 118.861496,161.304260 115.586586,162.342148 
	C112.711533,163.253342 109.520790,164.799347 107.712166,167.059433 
	C105.048676,170.387772 100.734993,172.256485 97.591972,169.312576 
	C95.059135,166.940201 93.838158,163.224686 91.523972,160.546844 
	C88.644981,157.215439 89.059380,154.583344 91.308006,151.069595 
	C91.933960,150.091476 89.949142,146.327179 88.257141,145.202744 
	C84.156456,142.477570 79.226646,140.894028 77.707542,135.412796 
	C77.595764,135.009476 77.038689,134.526062 76.618210,134.444931 
	C73.928909,133.926117 71.950691,132.957352 72.181953,129.637985 
	C72.431038,126.062874 73.027550,122.870338 77.601181,122.283691 
	C77.974785,123.074432 77.984901,123.560493 77.995018,124.046555 
z"/>
<path fill="#ff9933" opacity="1.000000" stroke="none" 
	d="
M32.902191,59.990395 
	C31.073496,66.214928 29.207167,67.108788 19.876860,67.477005 
	C18.027628,67.549988 15.707824,68.913002 14.548108,70.411148 
	C12.336627,73.267990 10.632967,76.566719 9.031490,79.835358 
	C6.730951,84.530777 8.635245,89.323929 13.600777,90.949921 
	C17.364210,92.182297 21.360844,92.682693 25.197811,93.716309 
	C28.541899,94.617157 32.390095,96.212563 30.702682,100.360893 
	C28.134329,106.674942 30.743204,111.400352 35.393059,113.840614 
	C38.813992,115.635948 43.952137,114.883591 48.162319,114.225433 
	C51.640114,113.681763 54.847809,111.903252 57.832134,115.743759 
	C54.713772,113.878265 52.160892,114.807037 48.715092,116.691132 
	C45.435059,118.484604 40.895206,118.007523 36.899376,118.436867 
	C35.776917,118.557472 34.617321,118.383614 33.478989,118.292130 
	C32.129230,118.183670 30.784052,118.018265 29.436890,117.877541 
	C29.658031,116.505371 29.879173,115.133202 30.158022,113.402962 
	C24.772242,111.043045 25.674755,106.153824 27.322975,101.914940 
	C29.201569,97.083565 26.673597,96.621529 23.196594,95.984886 
	C18.561306,95.136154 13.912602,94.246262 9.383529,92.969978 
	C6.071416,92.036621 3.793350,84.394058 5.554339,80.182243 
	C6.533131,77.841232 8.204211,75.792458 9.536444,73.595695 
	C10.981997,71.212074 12.094132,68.535881 13.928711,66.509773 
	C15.189265,65.117622 17.562529,63.671806 19.214323,63.896626 
	C23.927092,64.538055 28.083714,64.705833 31.379631,59.850819 
	C32.330349,59.888313 32.616268,59.939354 32.902191,59.990395 
z"/>
<path fill="#ff9933" opacity="1.000000" stroke="none" 
	d="
M111.675163,35.979233 
	C111.838036,36.218952 111.731911,36.704880 111.504684,36.770325 
	C105.783112,38.418194 103.953201,44.011513 100.425323,47.838753 
	C98.184082,50.270180 96.201126,50.540531 93.431755,49.116291 
	C90.923927,47.826553 88.328316,46.593235 85.633766,45.806366 
	C81.039459,44.464729 78.295769,41.701916 76.963158,37.079830 
	C76.543488,35.624237 74.742737,34.566830 73.574089,33.327183 
	C72.592903,34.562168 71.287086,35.657188 70.684288,37.055321 
	C67.292099,44.923229 65.929520,44.998470 59.471012,39.737278 
	C56.569408,37.373589 52.299923,36.689068 48.324043,34.742378 
	C48.011784,33.787357 48.026615,33.332558 48.041451,32.877762 
	C53.160637,34.179893 59.551460,32.251907 62.627750,38.830868 
	C63.050327,39.734585 64.751419,40.495350 65.838669,40.467472 
	C66.520805,40.449982 67.168839,38.840530 67.813400,37.932003 
	C67.899719,37.810337 67.857498,37.604832 67.905174,37.447353 
	C70.391388,29.235655 74.943184,27.894281 81.552513,33.508228 
	C82.222656,34.077450 82.637733,35.133766 82.830978,36.036839 
	C83.180168,37.668648 82.804916,40.530602 83.548599,40.826412 
	C87.999298,42.596771 91.449089,47.246216 96.651695,46.391556 
	C98.583061,46.074287 101.183510,43.731884 101.671356,41.845554 
	C103.265121,35.682999 103.064789,35.537861 109.473289,36.596313 
	C110.051788,36.691856 110.722076,36.231640 111.675163,35.979233 
z"/>
<path fill="#ff9933" opacity="1.000000" stroke="none" 
	d="
M187.000809,96.277580 
	C188.094971,95.952919 189.427429,95.988167 190.754364,95.918182 
	C201.130417,95.370941 202.877991,93.064590 200.911591,82.886314 
	C200.610031,81.325417 200.306198,79.261742 201.045242,78.084778 
	C205.809647,70.497116 200.695374,64.539192 197.966766,58.281120 
	C195.655792,52.980957 192.838806,47.901428 190.311493,42.123283 
	C190.974533,41.020336 191.571838,40.518356 192.169159,40.016380 
	C193.051804,42.620556 193.934464,45.224731 194.817108,47.828907 
	C195.153259,47.678665 195.489410,47.528419 195.825577,47.378174 
	C196.831696,49.128117 197.873062,50.859264 198.822678,52.639359 
	C199.110550,53.178989 198.937836,54.085037 199.325928,54.432499 
	C205.668701,60.110981 204.792938,68.180603 205.730927,75.373528 
	C206.466156,81.011772 205.217224,86.916458 204.774536,92.697006 
	C204.584824,95.174088 204.289566,97.111359 200.591110,96.466873 
	C198.164246,96.043961 195.445694,97.697754 192.827011,97.835243 
	C190.990402,97.931679 189.101883,97.039459 187.000809,96.277580 
z"/>
<path fill="#ff9933" opacity="1.000000" stroke="none" 
	d="
M176.017563,31.021492 
	C174.537033,26.979094 175.748932,23.955526 179.670929,21.116144 
	C173.979782,19.860056 168.288651,18.603970 162.383179,16.857862 
	C162.760208,13.962911 163.351578,11.557979 163.942947,9.153049 
	C165.339645,8.263769 166.703354,7.316453 168.141052,6.499332 
	C170.104828,5.383221 172.680618,4.255695 173.261719,7.379933 
	C173.595901,9.176585 171.988495,11.495221 170.856339,13.333282 
	C170.321289,14.201927 168.849548,14.493614 168.079941,16.068579 
	C171.641327,16.068579 175.276855,15.635992 178.736649,16.228903 
	C180.852051,16.591425 183.703110,18.139057 184.375443,19.871681 
	C185.020767,21.534653 184.617844,24.875496 180.957947,25.349125 
	C180.369156,25.425322 180.105957,28.017443 179.438705,29.855503 
	C178.129303,30.516813 177.073425,30.769154 176.017563,31.021492 
z"/>
<path fill="#ff9933" opacity="1.000000" stroke="none" 
	d="
M163.676025,9.030173 
	C163.351578,11.557979 162.760208,13.962911 162.083801,16.688953 
	C156.659729,18.354404 151.281677,19.563807 145.996277,21.093412 
	C142.796906,22.019318 139.741119,23.441387 136.620834,24.640535 
	C136.435196,24.274151 136.249542,23.907768 136.063904,23.541386 
	C135.167770,24.890100 134.271637,26.238817 133.139847,27.800373 
	C132.698441,26.899178 132.305099,25.780937 132.329956,24.672068 
	C132.369446,22.909090 132.080673,20.534292 133.062225,19.569942 
	C134.009720,18.639055 136.388733,19.157799 138.139740,19.054045 
	C140.312897,18.925278 142.690598,19.332411 144.617096,18.579554 
	C148.333832,17.127087 151.740616,14.900081 155.394196,13.257248 
	C156.638290,12.697845 158.237762,12.928813 158.293930,12.923724 
	C160.488602,11.200470 161.948853,10.053885 163.676025,9.030173 
z"/>
<path fill="#ff9933" opacity="1.000000" stroke="none" 
	d="
M187.958923,24.900940 
	C188.799896,24.854111 189.640869,24.807283 190.901825,24.999504 
	C192.032852,25.357738 192.743881,25.476923 193.454926,25.596107 
	C192.936432,24.744547 192.417938,23.892986 191.899460,23.041426 
	C192.428818,21.949024 193.296173,20.894459 193.423492,19.757051 
	C193.790283,16.480614 195.395676,15.537481 198.620087,16.565695 
	C198.835022,19.797596 197.861526,24.113323 199.569885,25.997730 
	C201.654633,28.297308 200.445358,29.605055 199.830536,31.706705 
	C198.950577,32.005329 198.480591,32.018562 197.911133,31.768467 
	C196.541580,30.971590 195.271500,30.438044 193.728073,29.750761 
	C192.317780,29.058935 191.180847,28.520845 189.805817,27.827934 
	C189.059647,27.421751 188.551559,27.170393 188.028839,26.583099 
	C187.995773,25.798424 187.977356,25.349682 187.958923,24.900940 
z"/>
<path fill="#ff9933" opacity="1.000000" stroke="none" 
	d="
M190.043915,27.982754 
	C191.180847,28.520845 192.317780,29.058935 193.643524,30.105713 
	C191.221710,33.742233 188.611099,36.870068 186.000473,39.997902 
	C182.755768,37.217014 179.511078,34.436119 176.141968,31.338362 
	C177.073425,30.769154 178.129303,30.516813 179.493484,30.157803 
	C180.343689,31.299295 180.885574,32.547459 181.842346,34.243568 
	C184.180634,37.295013 185.553894,35.915558 186.712952,33.997807 
	C187.897583,32.037701 188.939514,29.991348 190.043915,27.982754 
z"/>
<path fill="#ff9933" opacity="1.000000" stroke="none" 
	d="
M57.910587,116.262039 
	C63.009449,115.907150 68.072914,115.746628 73.136414,115.745377 
	C75.427422,115.744812 77.731316,115.981262 79.991554,116.345093 
	C80.242477,116.385490 80.244774,117.970444 80.109482,118.932060 
	C75.279816,119.163208 70.672195,119.675591 66.137573,119.302017 
	C63.326172,119.070396 60.625549,117.494087 57.910587,116.262039 
z"/>
<path fill="#ff9933" opacity="1.000000" stroke="none" 
	d="
M47.777359,32.741028 
	C48.026615,33.332558 48.011784,33.787357 47.985111,34.581985 
	C42.234589,37.132584 41.596004,42.901302 39.191029,47.452007 
	C38.067940,49.577110 36.756191,51.602505 35.224602,53.838875 
	C36.979275,48.205048 38.680527,42.236015 41.295586,36.698521 
	C42.200485,34.782356 45.375286,33.938145 47.777359,32.741028 
z"/>
<path fill="#ff9933" opacity="1.000000" stroke="none" 
	d="
M186.261353,40.184883 
	C188.611099,36.870068 191.221710,33.742233 193.916885,30.259449 
	C195.271500,30.438044 196.541580,30.971590 197.773651,32.048004 
	C196.479706,35.003704 195.223755,37.416534 193.967804,39.829369 
	C193.568756,39.879837 193.169693,39.930305 192.469910,39.998577 
	C191.571838,40.518356 190.974533,41.020336 190.197006,41.752769 
	C188.851929,41.446106 187.687073,40.908981 186.261353,40.184883 
z"/>
<path fill="#ff9933" opacity="1.000000" stroke="none" 
	d="
M189.805817,27.827930 
	C188.939514,29.991348 187.897583,32.037701 186.712952,33.997807 
	C185.553894,35.915558 184.180634,37.295013 182.135193,34.436188 
	C182.301514,32.275349 182.589890,30.369843 183.373932,28.169388 
	C185.260910,27.555975 186.652191,27.237507 188.043488,26.919037 
	C188.551559,27.170393 189.059647,27.421751 189.805817,27.827930 
z"/>
<path fill="#ff9933" opacity="1.000000" stroke="none" 
	d="
M171.117722,86.295410 
	C177.310532,86.864616 182.354477,89.858704 186.108643,95.503525 
	C181.248367,92.750168 176.260345,89.667816 171.117722,86.295410 
z"/>
<path fill="#ff9933" opacity="1.000000" stroke="none" 
	d="
M194.347794,39.874702 
	C195.223755,37.416534 196.479706,35.003704 197.873138,32.311333 
	C198.480591,32.018562 198.950577,32.005329 199.773056,31.983376 
	C199.595963,35.485676 201.209946,40.452961 194.347794,39.874702 
z"/>
<path fill="#ff9933" opacity="1.000000" stroke="none" 
	d="
M132.711075,27.922546 
	C131.543503,28.891186 130.086548,29.883860 128.282379,30.933151 
	C129.430664,29.975372 130.926178,28.960978 132.711075,27.922546 
z"/>
<path fill="#ff9933" opacity="1.000000" stroke="none" 
	d="
M33.103275,59.693855 
	C32.616268,59.939354 32.330349,59.888313 31.614294,59.754738 
	C32.249924,57.875813 33.315685,56.079414 34.681030,54.104195 
	C34.421860,55.749352 33.863110,57.573330 33.103275,59.693855 
z"/>
<path fill="#ff9933" opacity="1.000000" stroke="none" 
	d="
M169.254456,84.947372 
	C168.467606,83.998566 167.939011,83.192154 167.212677,82.172195 
	C170.537460,80.566895 170.110504,83.658897 170.946243,85.706985 
	C170.502823,85.721909 170.007782,85.405838 169.254456,84.947372 
z"/>
<path fill="#ff9933" opacity="1.000000" stroke="none" 
	d="
M191.832367,23.296162 
	C192.417938,23.892986 192.936432,24.744547 193.454926,25.596107 
	C192.743881,25.476923 192.032852,25.357738 191.144073,25.072063 
	C191.232635,24.454012 191.498947,24.002455 191.832367,23.296162 
z"/>
<path fill="#ff9933" opacity="1.000000" stroke="none" 
	d="
M123.017227,33.990326 
	C121.862442,34.567307 120.707657,35.144291 119.058105,35.643936 
	C118.063522,35.114460 117.563728,34.662315 117.063927,34.210175 
	C118.784851,33.825058 120.505768,33.439941 122.610336,33.251480 
	C123.001724,33.628860 123.009476,33.809593 123.017227,33.990326 
z"/>
<path fill="#ff9933" opacity="1.000000" stroke="none" 
	d="
M123.345032,33.902405 
	C123.009476,33.809593 123.001724,33.628860 122.982475,33.177044 
	C124.423515,32.291344 125.876060,31.676729 127.670395,30.996605 
	C126.565742,31.892223 125.119286,32.853352 123.345032,33.902405 
z"/>
<path fill="#ff9933" opacity="1.000000" stroke="none" 
	d="
M188.028839,26.583099 
	C186.652191,27.237507 185.260910,27.555975 183.519836,27.934052 
	C184.547714,27.009279 185.925369,26.024899 187.630981,24.970730 
	C187.977356,25.349682 187.995773,25.798424 188.028839,26.583099 
z"/>
<path fill="#ff9933" opacity="1.000000" stroke="none" 
	d="
M78.180901,123.887268 
	C77.984901,123.560493 77.974785,123.074432 77.956299,122.224091 
	C77.979126,121.682449 78.010330,121.505081 78.108070,121.063744 
	C78.238663,121.775841 78.302727,122.751907 78.180901,123.887268 
z"/>
<path fill="#ff9933" opacity="1.000000" stroke="none" 
	d="
M116.722092,34.170357 
	C117.563728,34.662315 118.063522,35.114460 118.745438,35.736198 
	C117.882263,35.900097 116.836975,35.894398 115.398605,35.598698 
	C115.006088,34.938057 115.006645,34.567421 115.007210,34.196785 
	C115.464890,34.174702 115.922569,34.152618 116.722092,34.170357 
z"/>
<path fill="#ff9933" opacity="1.000000" stroke="none" 
	d="
M114.762924,34.110176 
	C115.006645,34.567421 115.006088,34.938057 115.005234,35.584000 
	C114.237770,35.899410 113.470589,35.939510 112.319252,35.979927 
	C112.796280,35.328018 113.657455,34.675793 114.762924,34.110176 
z"/>
<path fill="#ff9933" opacity="1.000000" stroke="none" 
	d="
M166.807465,82.175980 
	C166.765366,82.241875 166.551849,82.459938 166.165649,82.829163 
	C166.209473,82.765007 166.423813,82.547615 166.807465,82.175980 
z"/>
</svg>